<?xml version="1.0" encoding="utf-8"?>
<!-- Generator: Adobe Illustrator 22.1.0, SVG Export Plug-In . SVG Version: 6.00 Build 0)  -->
<svg version="1.1" id="Layer_1" xmlns="http://www.w3.org/2000/svg" xmlns:xlink="http://www.w3.org/1999/xlink" x="0px" y="0px"
	 viewBox="0 0 137.5 56" style="enable-background:new 0 0 137.5 56;" xml:space="preserve">
<style type="text/css">
	.st0{clip-path:url(#SVGID_1_);fill:#2BC0CF;}
	.st1{clip-path:url(#SVGID_1_);fill:#D6DF28;}
	.st2{clip-path:url(#SVGID_1_);fill:#0099B5;}
	.st3{clip-path:url(#SVGID_1_);fill:#FFFFFF;}
</style>
<g>
	<defs>
		<rect id="SVGID_3_" width="137.5" height="56"/>
	</defs>
	<clipPath id="SVGID_1_">
		<use xlink:href="#SVGID_3_"  style="overflow:visible;"/>
	</clipPath>
	<path class="st0" d="M27.6,24.1c0-5.3,2.4-10,6.2-13.1v-0.7c0-1.9-1.5-3.4-3.4-3.4c-1.9,0-3.4,1.5-3.4,3.4v0.2
		c-2.8-2.1-6.3-3.4-10.1-3.4C7.6,7.2,0,14.8,0,24.1S7.6,41,16.9,41c3.8,0,7.3-1.2,10.1-3.4V39c0,5.6-4.5,10.1-10.1,10.1
		c-3.3,0-6.4-1.6-8.3-4.4c-1.1-1.6-3.2-1.9-4.7-0.9C2.3,45,1.9,47.1,3,48.7c3.2,4.6,8.4,7.3,13.9,7.3c9.3,0,16.9-7.6,16.9-16.9v-1.8
		C30.1,34.1,27.6,29.4,27.6,24.1 M16.9,34.2c-5.6,0-10.1-4.5-10.1-10.1c0-5.6,4.5-10.1,10.1-10.1C22.5,14,27,18.5,27,24.1
		C27,29.7,22.5,34.2,16.9,34.2"/>
	<path class="st1" d="M57.4,29.4c-1.5-1.1-3.7-0.8-4.8,0.7c-1.9,2.6-4.9,4.1-8.1,4.1c-5.6,0-10.1-4.5-10.1-10.1
		C34.5,18.5,39,14,44.6,14c3.3,0,6.4,1.6,8.2,4.3c1.1,1.5,3.2,1.9,4.8,0.8c1.5-1.1,1.9-3.2,0.8-4.8C55.2,9.8,50,7.2,44.6,7.2
		c-4.1,0-7.8,1.4-10.7,3.8v26.2c2.9,2.4,6.6,3.8,10.7,3.8c5.3,0,10.4-2.5,13.6-6.8C59.3,32.7,59,30.6,57.4,29.4"/>
	<path class="st2" d="M27.6,24.1c0,5.3,2.4,10,6.2,13.1V11C30.1,14.1,27.6,18.8,27.6,24.1"/>
	<path class="st3" d="M69.2,51.3c-0.1,0-0.2-0.1-0.2-0.2L68.8,0.2C68.8,0.1,68.9,0,69,0h0c0.1,0,0.2,0.1,0.2,0.2l0.2,50.9
		C69.4,51.2,69.3,51.3,69.2,51.3L69.2,51.3z"/>
	<path class="st3" d="M79.9,15.7c-0.6-0.6-0.9-1.4-0.9-2.3c0-0.9,0.3-1.7,0.9-2.3c0.6-0.6,1.4-0.9,2.3-0.9c0.7,0,1.3,0.2,1.8,0.5
		c0.5,0.4,0.9,0.8,1.2,1.5h-1.5c-0.3-0.6-0.8-0.8-1.5-0.8c-0.6,0-1,0.2-1.4,0.6c-0.4,0.4-0.5,0.9-0.5,1.5c0,0.6,0.2,1.1,0.5,1.5
		c0.4,0.4,0.8,0.6,1.3,0.6c0.5,0,0.9-0.1,1.2-0.4c0.3-0.3,0.5-0.6,0.6-1h-2.1v-1h3.5v1c-0.1,0.7-0.4,1.3-1,1.8
		c-0.6,0.5-1.3,0.8-2.2,0.8C81.3,16.7,80.5,16.3,79.9,15.7"/>
	<path class="st3" d="M86.8,16c-0.5-0.5-0.7-1.1-0.7-1.9s0.2-1.4,0.7-1.9c0.5-0.5,1.1-0.7,1.9-0.7s1.4,0.2,1.9,0.7
		c0.5,0.5,0.7,1.1,0.7,1.9S91,15.5,90.5,16c-0.5,0.5-1.1,0.7-1.9,0.7C87.9,16.7,87.2,16.4,86.8,16 M88.6,15.6c0.4,0,0.7-0.1,0.9-0.4
		c0.3-0.3,0.4-0.6,0.4-1.1c0-0.5-0.1-0.9-0.4-1.1c-0.3-0.3-0.6-0.4-0.9-0.4c-0.4,0-0.7,0.1-0.9,0.4c-0.2,0.3-0.4,0.6-0.4,1.1
		c0,0.5,0.1,0.9,0.4,1.1C87.9,15.5,88.2,15.6,88.6,15.6"/>
	<rect x="92.2" y="9.9" class="st3" width="1.3" height="6.7"/>
	<path class="st3" d="M95.2,15.9c-0.5-0.5-0.7-1.1-0.7-1.9c0-0.8,0.2-1.4,0.7-1.9c0.4-0.5,1-0.7,1.7-0.7c0.7,0,1.2,0.3,1.6,0.9V9.9
		h1.3v6.7h-1.3v-0.8c-0.4,0.6-0.9,0.9-1.6,0.9C96.2,16.7,95.6,16.4,95.2,15.9 M98.1,15.2c0.3-0.3,0.4-0.6,0.4-1.1s-0.1-0.8-0.4-1.1
		c-0.3-0.3-0.6-0.4-0.9-0.4c-0.4,0-0.7,0.1-0.9,0.4c-0.3,0.3-0.4,0.6-0.4,1.1s0.1,0.8,0.4,1.1s0.6,0.4,0.9,0.4
		C97.5,15.6,97.8,15.4,98.1,15.2"/>
	<path class="st3" d="M104.4,15.7c-0.6-0.6-0.9-1.4-0.9-2.3c0-0.9,0.3-1.7,0.9-2.3c0.6-0.6,1.4-0.9,2.3-0.9c0.7,0,1.3,0.2,1.8,0.5
		c0.5,0.4,0.9,0.8,1.2,1.5h-1.5c-0.3-0.6-0.8-0.8-1.5-0.8c-0.6,0-1,0.2-1.4,0.6c-0.4,0.4-0.5,0.9-0.5,1.5c0,0.6,0.2,1.1,0.5,1.5
		c0.4,0.4,0.8,0.6,1.4,0.6c0.7,0,1.2-0.3,1.5-0.8h1.5c-0.2,0.6-0.6,1.1-1.2,1.5c-0.5,0.3-1.2,0.5-1.8,0.5
		C105.8,16.7,105,16.3,104.4,15.7"/>
	<path class="st3" d="M111.2,16c-0.5-0.5-0.7-1.1-0.7-1.9s0.3-1.4,0.7-1.9c0.5-0.5,1.1-0.7,1.9-0.7s1.4,0.2,1.9,0.7
		c0.5,0.5,0.7,1.1,0.7,1.9s-0.3,1.4-0.8,1.9c-0.5,0.5-1.1,0.7-1.9,0.7C112.3,16.7,111.7,16.4,111.2,16 M113,15.6
		c0.4,0,0.7-0.1,0.9-0.4c0.3-0.3,0.4-0.6,0.4-1.1c0-0.5-0.1-0.9-0.4-1.1c-0.3-0.3-0.6-0.4-0.9-0.4c-0.4,0-0.7,0.1-0.9,0.4
		c-0.2,0.3-0.4,0.6-0.4,1.1c0,0.5,0.1,0.9,0.4,1.1C112.4,15.5,112.7,15.6,113,15.6"/>
	<path class="st3" d="M117,15.9c-0.5-0.5-0.7-1.1-0.7-1.9c0-0.8,0.2-1.4,0.7-1.9c0.4-0.5,1-0.7,1.7-0.7c0.7,0,1.2,0.3,1.6,0.9v-0.8
		h1.3v5h-1.3v-0.8c-0.4,0.6-0.9,0.9-1.6,0.9C118,16.7,117.4,16.4,117,15.9 M119.9,15.2c0.3-0.3,0.4-0.6,0.4-1.1s-0.1-0.8-0.4-1.1
		c-0.3-0.3-0.6-0.4-0.9-0.4c-0.4,0-0.7,0.1-0.9,0.4c-0.3,0.3-0.4,0.6-0.4,1.1s0.1,0.8,0.4,1.1c0.3,0.3,0.6,0.4,0.9,0.4
		C119.3,15.6,119.6,15.4,119.9,15.2"/>
	<path class="st3" d="M122.6,13c0-0.4,0.2-0.8,0.6-1.1c0.4-0.3,0.9-0.4,1.5-0.4c0.6,0,1.1,0.1,1.5,0.4c0.4,0.3,0.6,0.7,0.6,1.2h-1.3
		c0-0.4-0.3-0.6-0.8-0.6c-0.2,0-0.4,0-0.6,0.1c-0.1,0.1-0.2,0.2-0.2,0.4c0,0.2,0.1,0.3,0.3,0.4c0.2,0.1,0.4,0.2,0.7,0.2
		c0.3,0.1,0.6,0.1,0.8,0.2c0.3,0.1,0.5,0.2,0.7,0.4c0.2,0.2,0.3,0.5,0.3,0.8c0,0.5-0.2,0.8-0.6,1.1c-0.4,0.3-0.9,0.4-1.5,0.4
		s-1.1-0.1-1.5-0.4c-0.4-0.3-0.6-0.7-0.6-1.2h1.3c0,0.4,0.3,0.6,0.8,0.6c0.2,0,0.4-0.1,0.6-0.2c0.1-0.1,0.2-0.2,0.2-0.4
		c0-0.2-0.1-0.3-0.3-0.4s-0.4-0.2-0.7-0.2c-0.3-0.1-0.6-0.1-0.9-0.2c-0.3-0.1-0.5-0.2-0.7-0.4C122.7,13.6,122.6,13.4,122.6,13"/>
	<path class="st3" d="M129.7,15.5h0.6v1.1h-0.8c-0.5,0-0.9-0.1-1.2-0.4c-0.3-0.2-0.4-0.6-0.4-1.2v-2.5h-0.5v-1h0.5v-1.2h1.3v1.2h1.1
		v1h-1.1v2.5c0,0.2,0,0.3,0.1,0.4C129.4,15.5,129.5,15.5,129.7,15.5"/>
	<path class="st3" d="M79.9,26.7C79.3,26,79,25.3,79,24.3c0-0.9,0.3-1.7,0.9-2.3c0.6-0.6,1.4-0.9,2.3-0.9c0.7,0,1.3,0.2,1.8,0.5
		c0.5,0.4,0.9,0.8,1.2,1.5h-1.5c-0.3-0.6-0.8-0.8-1.5-0.8c-0.6,0-1,0.2-1.4,0.6c-0.4,0.4-0.5,0.9-0.5,1.5s0.2,1.1,0.5,1.5
		c0.4,0.4,0.8,0.6,1.4,0.6c0.7,0,1.2-0.3,1.5-0.8h1.5c-0.2,0.6-0.6,1.1-1.2,1.5c-0.5,0.3-1.2,0.5-1.8,0.5
		C81.3,27.6,80.5,27.3,79.9,26.7"/>
	<path class="st3" d="M86.6,26.9c-0.5-0.5-0.7-1.1-0.7-1.9s0.2-1.4,0.7-1.9s1.1-0.7,1.9-0.7s1.4,0.2,1.9,0.7
		c0.5,0.5,0.7,1.1,0.7,1.9s-0.3,1.4-0.8,1.9c-0.5,0.5-1.1,0.7-1.9,0.7C87.8,27.6,87.1,27.4,86.6,26.9 M88.5,26.5
		c0.4,0,0.7-0.1,0.9-0.4c0.3-0.3,0.4-0.6,0.4-1.1c0-0.5-0.1-0.9-0.4-1.1c-0.3-0.3-0.6-0.4-0.9-0.4c-0.4,0-0.7,0.1-0.9,0.4
		c-0.2,0.3-0.4,0.6-0.4,1.1c0,0.5,0.1,0.9,0.4,1.1C87.8,26.4,88.1,26.5,88.5,26.5"/>
	<path class="st3" d="M93.4,22.5v0.8c0.3-0.6,0.8-0.8,1.6-0.8c0.4,0,0.7,0.1,1,0.3c0.3,0.2,0.5,0.4,0.7,0.8c0.2-0.3,0.4-0.6,0.7-0.7
		c0.3-0.2,0.7-0.3,1-0.3c0.6,0,1.1,0.2,1.5,0.6c0.4,0.4,0.6,0.9,0.6,1.6v3h-1.3v-2.8c0-0.4-0.1-0.7-0.3-0.9
		c-0.2-0.2-0.5-0.3-0.8-0.3c-0.3,0-0.6,0.1-0.8,0.3c-0.2,0.2-0.3,0.5-0.3,0.9v2.8h-1.3v-2.8c0-0.4-0.1-0.7-0.3-0.9
		c-0.2-0.2-0.5-0.3-0.8-0.3c-0.3,0-0.6,0.1-0.8,0.3c-0.2,0.2-0.3,0.5-0.3,0.9v2.8h-1.3v-5H93.4z"/>
	<path class="st3" d="M103,22.5v0.8c0.3-0.6,0.8-0.8,1.6-0.8c0.4,0,0.7,0.1,1,0.3c0.3,0.2,0.5,0.4,0.7,0.8c0.2-0.3,0.4-0.6,0.7-0.7
		c0.3-0.2,0.7-0.3,1-0.3c0.6,0,1.1,0.2,1.5,0.6c0.4,0.4,0.6,0.9,0.6,1.6v3h-1.3v-2.8c0-0.4-0.1-0.7-0.3-0.9
		c-0.2-0.2-0.5-0.3-0.8-0.3c-0.3,0-0.6,0.1-0.8,0.3c-0.2,0.2-0.3,0.5-0.3,0.9v2.8h-1.3v-2.8c0-0.4-0.1-0.7-0.3-0.9
		c-0.2-0.2-0.5-0.3-0.8-0.3c-0.3,0-0.6,0.1-0.8,0.3c-0.2,0.2-0.3,0.5-0.3,0.9v2.8h-1.3v-5H103z"/>
	<path class="st3" d="M114.7,22.5h1.3v5h-1.3v-0.8c-0.3,0.6-0.8,0.8-1.6,0.8c-0.6,0-1-0.2-1.4-0.6s-0.5-0.9-0.5-1.6v-3h1.3v2.8
		c0,0.4,0.1,0.7,0.3,0.9c0.2,0.2,0.5,0.3,0.8,0.3c0.3,0,0.6-0.1,0.8-0.3c0.2-0.2,0.3-0.5,0.3-0.9V22.5z"/>
	<path class="st3" d="M118.6,22.5v0.8c0.3-0.6,0.8-0.8,1.6-0.8c0.6,0,1,0.2,1.4,0.6c0.4,0.4,0.5,0.9,0.5,1.6v3h-1.3v-2.8
		c0-0.4-0.1-0.7-0.3-0.9c-0.2-0.2-0.5-0.3-0.8-0.3c-0.3,0-0.6,0.1-0.8,0.3c-0.2,0.2-0.3,0.5-0.3,0.9v2.8h-1.3v-5H118.6z"/>
	<path class="st3" d="M124.8,21.2c0,0.2-0.1,0.4-0.2,0.6c-0.2,0.2-0.3,0.2-0.6,0.2c-0.2,0-0.4-0.1-0.6-0.2c-0.2-0.2-0.2-0.3-0.2-0.6
		c0-0.2,0.1-0.4,0.2-0.6c0.2-0.2,0.3-0.2,0.6-0.2c0.2,0,0.4,0.1,0.6,0.2C124.7,20.8,124.8,21,124.8,21.2 M123.4,22.5h1.3v5h-1.3
		V22.5z"/>
	<path class="st3" d="M127.9,26.4h0.6v1.1h-0.8c-0.5,0-0.9-0.1-1.2-0.4c-0.3-0.2-0.4-0.6-0.4-1.2v-2.5h-0.5v-1h0.5v-1.2h1.3v1.2h1.1
		v1h-1.1V26c0,0.2,0,0.3,0.1,0.4C127.6,26.4,127.7,26.4,127.9,26.4"/>
	<polygon class="st3" points="131,27.4 129,22.5 130.5,22.5 131.8,26.1 133.1,22.5 134.5,22.5 131.3,29.9 130,29.9 	"/>
	<polygon class="st3" points="79.3,32.1 80.6,32.1 80.6,37.5 82.6,37.5 82.6,38.4 79.3,38.4 	"/>
	<path class="st3" d="M85.5,38.5c-0.7,0-1.3-0.2-1.8-0.7c-0.5-0.5-0.7-1.1-0.7-1.9s0.2-1.4,0.7-1.9c0.5-0.5,1.1-0.7,1.8-0.7
		s1.3,0.2,1.8,0.7c0.5,0.5,0.7,1.1,0.7,1.8c0,0.2,0,0.3,0,0.5h-3.7c0,0.3,0.2,0.6,0.4,0.8c0.2,0.2,0.5,0.3,0.8,0.3
		c0.4,0,0.8-0.2,1-0.5h1.4c-0.1,0.5-0.4,0.9-0.8,1.2C86.6,38.4,86.1,38.5,85.5,38.5 M86.4,34.7c-0.2-0.2-0.5-0.3-0.8-0.3
		c-0.3,0-0.6,0.1-0.8,0.3c-0.2,0.2-0.3,0.5-0.4,0.8h2.4C86.7,35.2,86.6,34.9,86.4,34.7"/>
	<path class="st3" d="M89.4,37.8c-0.5-0.5-0.7-1.1-0.7-1.9c0-0.8,0.2-1.4,0.7-1.9c0.4-0.5,1-0.7,1.7-0.7c0.7,0,1.2,0.3,1.6,0.9v-0.8
		H94v5.1c0,0.7-0.2,1.3-0.6,1.8c-0.4,0.5-1,0.7-1.8,0.7c-0.8,0-1.4-0.2-1.8-0.5c-0.5-0.3-0.7-0.8-0.8-1.4h1.3
		c0.1,0.2,0.2,0.4,0.5,0.5c0.2,0.1,0.5,0.2,0.8,0.2c0.3,0,0.6-0.1,0.9-0.3c0.2-0.2,0.3-0.6,0.3-1v-0.9c-0.4,0.6-0.9,0.9-1.6,0.9
		C90.5,38.5,89.9,38.3,89.4,37.8 M92.3,37c0.3-0.3,0.4-0.6,0.4-1.1s-0.1-0.8-0.4-1.1c-0.3-0.3-0.6-0.4-0.9-0.4
		c-0.4,0-0.7,0.1-0.9,0.4c-0.3,0.3-0.4,0.6-0.4,1.1c0,0.5,0.1,0.8,0.4,1.1c0.3,0.3,0.6,0.4,0.9,0.4C91.8,37.4,92.1,37.3,92.3,37"/>
	<path class="st3" d="M95.7,37.8c-0.5-0.5-0.7-1.1-0.7-1.9c0-0.8,0.2-1.4,0.7-1.9c0.4-0.5,1-0.7,1.7-0.7c0.7,0,1.2,0.3,1.6,0.9v-0.8
		h1.3v5H99v-0.8c-0.4,0.6-0.9,0.9-1.6,0.9C96.7,38.5,96.1,38.3,95.7,37.8 M98.6,37c0.3-0.3,0.4-0.6,0.4-1.1s-0.1-0.8-0.4-1.1
		c-0.3-0.3-0.6-0.4-0.9-0.4c-0.4,0-0.7,0.1-0.9,0.4c-0.3,0.3-0.4,0.6-0.4,1.1c0,0.5,0.1,0.8,0.4,1.1c0.3,0.3,0.6,0.4,0.9,0.4
		C98,37.4,98.3,37.3,98.6,37"/>
	<rect x="101.6" y="31.7" class="st3" width="1.3" height="6.7"/>
	<path class="st3" d="M107.5,37.6c-0.6-0.6-0.9-1.4-0.9-2.3c0-0.9,0.3-1.7,0.9-2.3c0.6-0.6,1.4-0.9,2.3-0.9c0.7,0,1.3,0.2,1.8,0.5
		c0.5,0.4,0.9,0.8,1.2,1.5h-1.5c-0.3-0.6-0.8-0.8-1.5-0.8c-0.6,0-1,0.2-1.4,0.6c-0.4,0.4-0.5,0.9-0.5,1.5s0.2,1.1,0.5,1.5
		c0.4,0.4,0.8,0.6,1.4,0.6c0.7,0,1.2-0.3,1.5-0.8h1.5c-0.2,0.6-0.6,1.1-1.2,1.5c-0.5,0.3-1.2,0.5-1.8,0.5
		C108.9,38.5,108.1,38.2,107.5,37.6"/>
	<path class="st3" d="M116,38.5c-0.7,0-1.3-0.2-1.8-0.7c-0.5-0.5-0.7-1.1-0.7-1.9s0.2-1.4,0.7-1.9c0.5-0.5,1.1-0.7,1.8-0.7
		c0.7,0,1.3,0.2,1.8,0.7c0.5,0.5,0.7,1.1,0.7,1.8c0,0.2,0,0.3,0,0.5h-3.7c0,0.3,0.2,0.6,0.4,0.8c0.2,0.2,0.5,0.3,0.8,0.3
		c0.4,0,0.8-0.2,1-0.5h1.4c-0.1,0.5-0.4,0.9-0.8,1.2C117.1,38.4,116.6,38.5,116,38.5 M116.9,34.7c-0.2-0.2-0.5-0.3-0.8-0.3
		c-0.3,0-0.6,0.1-0.8,0.3c-0.2,0.2-0.3,0.5-0.4,0.8h2.4C117.2,35.2,117.1,34.9,116.9,34.7"/>
	<path class="st3" d="M120.8,33.4v0.8c0.3-0.6,0.8-0.8,1.6-0.8c0.6,0,1,0.2,1.4,0.6c0.4,0.4,0.5,0.9,0.5,1.6v3h-1.3v-2.8
		c0-0.4-0.1-0.7-0.3-0.9c-0.2-0.2-0.5-0.3-0.8-0.3c-0.3,0-0.6,0.1-0.8,0.3c-0.2,0.2-0.3,0.5-0.3,0.9v2.8h-1.3v-5H120.8z"/>
	<path class="st3" d="M127.5,37.4h0.6v1.1h-0.8c-0.5,0-0.9-0.1-1.2-0.4c-0.3-0.2-0.4-0.6-0.4-1.2v-2.5h-0.5v-1h0.5v-1.2h1.3v1.2h1.1
		v1H127v2.5c0,0.2,0,0.3,0.1,0.4C127.2,37.3,127.3,37.4,127.5,37.4"/>
	<path class="st3" d="M130.4,33.4v0.9c0.3-0.6,0.8-1,1.5-1v1.3h-0.3c-0.4,0-0.7,0.1-0.9,0.3c-0.2,0.2-0.3,0.5-0.3,1v2.5h-1.3v-5
		H130.4z"/>
	<path class="st3" d="M134.9,38.5c-0.7,0-1.3-0.2-1.8-0.7c-0.5-0.5-0.7-1.1-0.7-1.9s0.2-1.4,0.7-1.9c0.5-0.5,1.1-0.7,1.8-0.7
		s1.3,0.2,1.8,0.7c0.5,0.5,0.7,1.1,0.7,1.8c0,0.2,0,0.3,0,0.5h-3.7c0,0.3,0.2,0.6,0.4,0.8c0.2,0.2,0.5,0.3,0.8,0.3
		c0.4,0,0.8-0.2,1-0.5h1.4c-0.1,0.5-0.4,0.9-0.8,1.2C136,38.4,135.5,38.5,134.9,38.5 M135.8,34.7c-0.2-0.2-0.5-0.3-0.8-0.3
		c-0.3,0-0.6,0.1-0.8,0.3c-0.2,0.2-0.3,0.5-0.4,0.8h2.4C136.1,35.2,136,34.9,135.8,34.7"/>
</g>
</svg>
