<?xml version="1.0" encoding="utf-8"?>
<!-- Generator: Adobe Illustrator 21.1.0, SVG Export Plug-In . SVG Version: 6.00 Build 0)  -->
<svg version="1.1" id="Layer_1" xmlns="http://www.w3.org/2000/svg" xmlns:xlink="http://www.w3.org/1999/xlink" x="0px" y="0px"
	 viewBox="0 0 431 223" style="enable-background:new 0 0 431 223;" xml:space="preserve">
<style type="text/css">
	.st0{clip-path:url(#SVGID_2_);fill:url(#SVGID_3_);}
	.st1{fill:#77787B;}
</style>
<g>
	<path d="M282.1,45.9v73.1h-16.8V90.1h-27.7v28.9h-16.8V45.9h16.8v28.7h27.7V45.9H282.1z"/>
	<path d="M352,45.9v46.6c0,17.7-13.2,28.1-28.6,28.1c-15.6,0-28.7-10.5-28.7-28.1V45.9h16.8v46.7c0,10,6.8,12.2,11.9,12.2
		c5.1,0,11.8-2.2,11.8-12.2V45.9H352z"/>
	<path d="M420.9,97.5c0,13.4-8.4,21.5-26.6,21.5h-29.8V45.9h27.8c15.4,0,23.1,8.7,23.1,18.5c0,8-5.2,12.1-9.3,14
		C413.4,80.5,420.9,87.1,420.9,97.5z M381.3,60.5v13.1h9.4c6,0,7.9-2.7,7.9-6.6c0-4.2-2.5-6.5-7.9-6.5H381.3z M404.1,95.3
		c0-5-3.3-8.3-11.6-8.3h-11.2v17.3h12C400.8,104.4,404.1,101.3,404.1,95.3z"/>
</g>
<g>
	<defs>
		<path id="SVGID_1_" d="M68.6,194.9c0-6.4,5.2-11.6,11.6-11.6c6.4,0,11.6,5.2,11.6,11.6c0,6.4-5.2,11.6-11.6,11.6
			C73.8,206.4,68.6,201.2,68.6,194.9 M26.8,152.4c0-6.4,5.2-11.6,11.6-11.6c6.4,0,11.6,5.2,11.6,11.6c0,6.4-5.2,11.6-11.6,11.6
			C32,164,26.8,158.8,26.8,152.4 M110.1,152.4c0-6.4,5.2-11.6,11.6-11.6c6.4,0,11.6,5.2,11.6,11.6c0,6.4-5.2,11.6-11.6,11.6
			C115.3,164,110.1,158.8,110.1,152.4 M90.3,124l17.8,17.8c-2.3,2.9-3.7,6.6-3.7,10.6c0,4.6,1.8,8.7,4.7,11.8l-17.7,17.7
			c-3-2.6-6.9-4.2-11.2-4.2c-3.6,0-7,1.1-9.7,3l-18.2-18.2c2.1-2.8,3.3-6.3,3.3-10.1c0-3.7-1.2-7.2-3.2-10l18.1-18.1
			c2.8,1.9,6.1,3,9.7,3C84,127.3,87.4,126,90.3,124 M68.6,110.1c0-6.4,5.2-11.6,11.6-11.6c6.4,0,11.6,5.2,11.6,11.6
			c0,6.4-5.2,11.6-11.6,11.6C73.8,121.6,68.6,116.4,68.6,110.1 M152.4,110.1c0-6.4,5.2-11.6,11.6-11.6s11.6,5.2,11.6,11.6
			c0,6.4-5.2,11.6-11.6,11.6S152.4,116.4,152.4,110.1 M26.8,69.4c0-6.4,5.2-11.6,11.6-11.6c6.4,0,11.6,5.2,11.6,11.6
			c0,6.4-5.2,11.6-11.6,11.6C32,80.9,26.8,75.8,26.8,69.4 M110.1,69.4c0-6.4,5.2-11.6,11.6-11.6c6.4,0,11.6,5.2,11.6,11.6
			c0,6.4-5.2,11.6-11.6,11.6C115.3,80.9,110.1,75.8,110.1,69.4 M89.8,39.5l18.7,18.7c-2.6,3-4.1,6.9-4.1,11.1
			c0,9.5,7.7,17.2,17.2,17.2c3.7,0,7.1-1.2,9.9-3.1l17.7,17.7c-1.6,2.6-2.5,5.6-2.5,8.9c0,3.9,1.3,7.5,3.6,10.4l-18.2,18.2
			c-2.9-2.2-6.5-3.6-10.4-3.6c-3.5,0-6.7,1-9.4,2.8l-18-18c2-2.8,3.2-6.2,3.2-9.9c0-9.5-7.7-17.2-17.2-17.2c-3.8,0-7.3,1.3-10.2,3.4
			L52.7,78.9c1.8-2.7,2.9-6,2.9-9.5c0-4-1.4-7.7-3.7-10.6l19-19c2.7,1.7,5.9,2.7,9.3,2.7C83.8,42.5,87.1,41.4,89.8,39.5 M68.6,25.3
			c0-6.4,5.2-11.6,11.6-11.6c6.4,0,11.6,5.2,11.6,11.6c0,6.4-5.2,11.6-11.6,11.6C73.8,36.8,68.6,31.6,68.6,25.3 M63,25.3
			c0,4,1.4,7.7,3.7,10.7l-19,19c-2.7-1.8-5.9-2.8-9.3-2.8c-9.5,0-17.2,7.7-17.2,17.2c0,9.5,7.7,17.2,17.2,17.2
			c3.9,0,7.5-1.3,10.4-3.6l17.3,17.3c-1.9,2.8-3.1,6.2-3.1,9.8c0,3.9,1.3,7.4,3.5,10.3l-18.1,18.1c-2.8-2-6.3-3.2-10-3.2
			c-9.5,0-17.2,7.7-17.2,17.2c0,9.5,7.7,17.2,17.2,17.2c3.7,0,7.1-1.2,9.9-3.1l18.2,18.2c-2.1,2.9-3.4,6.4-3.4,10.3
			c0,9.5,7.7,17.2,17.2,17.2c9.5,0,17.2-7.7,17.2-17.2c0-3.2-0.9-6.1-2.4-8.6l18.6-18.6c2.4,1.3,5.1,2,8,2c9.5,0,17.2-7.7,17.2-17.2
			c0-3.5-1.1-6.8-2.9-9.6l18.5-18.5c2.7,1.8,6,2.9,9.5,2.9c9.5,0,17.2-7.7,17.2-17.2c0-9.5-7.7-17.2-17.2-17.2c-4.2,0-8,1.5-11,4
			l-17.4-17.4c2.1-2.8,3.3-6.3,3.3-10.1c0-9.5-7.7-17.2-17.2-17.2c-3.2,0-6.2,0.9-8.8,2.4l-19-19c2.2-2.9,3.5-6.5,3.5-10.4
			c0-9.5-7.7-17.2-17.2-17.2C70.7,8.1,63,15.8,63,25.3"/>
	</defs>
	<clipPath id="SVGID_2_">
		<use xlink:href="#SVGID_1_"  style="overflow:visible;"/>
	</clipPath>
	
		<linearGradient id="SVGID_3_" gradientUnits="userSpaceOnUse" x1="1.0864" y1="596.7706" x2="1.7715" y2="596.7706" gradientTransform="matrix(233.4927 0 0 -233.4927 -232.4927 139451.6719)">
		<stop  offset="0" style="stop-color:#00AEEF"/>
		<stop  offset="0.1313" style="stop-color:#009FE1"/>
		<stop  offset="0.2964" style="stop-color:#0091D4"/>
		<stop  offset="0.4651" style="stop-color:#0085C9"/>
		<stop  offset="0.6365" style="stop-color:#007CC2"/>
		<stop  offset="0.8125" style="stop-color:#1277BD"/>
		<stop  offset="1" style="stop-color:#1B75BC"/>
	</linearGradient>
	<rect x="21.2" y="8.1" class="st0" width="160" height="204"/>
</g>
<polygon points="281.6,45.5 281.6,118.5 264.8,118.5 264.8,89.6 237.2,89.6 237.2,118.5 220.4,118.5 220.4,45.5 237.2,45.5 
	237.2,74.2 264.8,74.2 264.8,45.5 "/>
<g>
	<path d="M351.4,45.5V92c0,17.6-13.1,28.1-28.6,28.1c-15.5,0-28.7-10.4-28.7-28.1V45.5h16.8v46.6c0,10,6.8,12.2,11.9,12.2
		c5.1,0,11.8-2.2,11.8-12.2V45.5H351.4z"/>
	<path d="M403.5,94.8c0-5-3.3-8.2-11.6-8.2h-11.2v17.3h12C400.2,103.9,403.5,100.8,403.5,94.8 M380.7,60.1v13h9.4
		c5.9,0,7.9-2.7,7.9-6.6c0-4.2-2.5-6.5-7.9-6.5H380.7z M420.3,97c0,13.4-8.3,21.5-26.6,21.5h-29.7v-73h27.8
		c15.3,0,23.1,8.7,23.1,18.5c0,8-5.2,12.1-9.3,14C412.8,80,420.3,86.6,420.3,97"/>
	<path class="st1" d="M232.6,154.3c-6.8,0-12.7-5.1-12.7-12.4c0-7.4,5.8-12.4,12.7-12.4c3.3,0,6.1,1,8.2,2.9l-3.4,3.8
		c-1.2-0.8-2.8-1.4-4.5-1.4c-4.3,0-7.2,3-7.2,7.2c0,4.2,2.9,7.2,7.2,7.2c1.7,0,3.4-0.7,4.6-1.6l3.3,3.9
		C238.7,153.3,235.9,154.3,232.6,154.3"/>
	<path class="st1" d="M247.3,145.1c0,2.9,2.1,4.5,4.2,4.5c2.1,0,4.2-1.6,4.2-4.5c0-3-2.1-4.6-4.2-4.6
		C249.4,140.5,247.3,142.1,247.3,145.1 M260.9,145.1c0,6.3-5.4,9.3-9.5,9.3c-4.1,0-9.5-2.9-9.5-9.3c0-6.3,5.4-9.4,9.5-9.4
		C255.5,135.7,260.9,138.8,260.9,145.1"/>
	<path class="st1" d="M295.2,144.3v9.7h-5.5v-9.5c0-2.3-1-4-3.5-4c-2.1,0-3.5,1.9-3.9,3.5v10h-5.5v-9.5c0-2.3-1.4-4-3.5-4
		c-2.2,0-3.6,1.5-3.9,3.5v10h-5.5v-18h5.5v3.3c0.1-0.8,1.8-3.6,5.4-3.6c2.6,0,5.1,1.4,6.6,3.9c0.4-1,2.5-3.9,6.6-3.9
		C291.8,135.7,295.2,138.2,295.2,144.3"/>
	<path class="st1" d="M329.8,144.3v9.7h-5.5v-9.5c0-2.3-1-4-3.5-4c-2.1,0-3.5,1.9-3.9,3.5v10h-5.5v-9.5c0-2.3-1.4-4-3.5-4
		c-2.2,0-3.6,1.5-3.9,3.5v10h-5.5v-18h5.5v3.3c0.1-0.8,1.8-3.6,5.4-3.6c2.6,0,5.1,1.4,6.6,3.9c0.4-1,2.5-3.9,6.6-3.9
		C326.4,135.7,329.8,138.2,329.8,144.3"/>
	<path class="st1" d="M332.9,146.3V136h5.5v9.9c0,2.7,0.9,3.6,2.7,3.6c2.5,0,3.9-2.4,4.2-3.4V136h5.5v18h-5.5v-3.1
		c-0.3,0.9-2.2,3.4-5.6,3.4C336.3,154.3,332.9,152,332.9,146.3"/>
	<path class="st1" d="M372,143.7V154h-5.5v-9.9c0-2.7-0.9-3.6-2.7-3.6c-2.5,0-3.9,2.4-4.2,3.4V154h-5.5v-18h5.5v3.1
		c0.3-0.9,2.2-3.4,5.6-3.4C368.6,135.7,372,138,372,143.7"/>
</g>
<path class="st1" d="M380.8,154h-5.5v-18h5.5V154z M380.8,134.2h-5.5v-4.6h5.5V134.2z"/>
<g>
	<path class="st1" d="M395.5,149.1v4.5c-0.8,0.3-2,0.6-3.8,0.6c-3,0-5.5-1-5.5-6.5v-7.2h-2.5V136h2.5v-4.2h5.5v4.2h3.8v4.5h-3.8v7.2
		c0,0.8,0.2,1.8,1.5,1.8C394.1,149.4,394.8,149.3,395.5,149.1"/>
</g>
<polygon class="st1" points="418.5,135.9 407.5,160.6 402,160.6 405.3,153.4 397.5,135.9 403,135.9 408,147.5 413,135.9 "/>
<polygon class="st1" points="235.2,186.9 235.2,192 220.5,192 220.5,167.8 226,167.8 226,186.9 "/>
<g>
	<path class="st1" d="M243.1,181.1h7.6c-0.6-1.8-2.2-2.7-3.8-2.7C245.4,178.4,243.8,179.3,243.1,181.1 M255.6,184.9H243
		c0.6,1.9,2.2,2.8,4.4,2.8c2.2,0,2.9-0.5,4.1-1l3,2.9c-1.6,1.6-3.7,2.7-7.4,2.7c-4.5,0-9.8-3.1-9.8-9.3c0-6.3,5.4-9.4,9.5-9.4
		C251,173.7,256.7,176.8,255.6,184.9"/>
	<path class="st1" d="M271.9,183c0-2.9-1.8-4.5-4.1-4.5c-2.3,0-4.4,1.6-4.4,4.5c0,3,2,4.6,4.4,4.6C270.1,187.6,271.9,186,271.9,183
		 M277.1,174v18c0,5.5-5.5,7.1-9.5,7.1c-1.9,0-3.6-0.3-4.7-0.9v-4.5c1.1,0.6,2.8,0.8,4.7,0.8c3.2,0,4.1-1.7,4.1-2.6v-1.8
		c-0.2,0.6-1.9,2.1-4.6,2.1c-4.1,0-8.9-2.9-8.9-9.4c0-6.2,4.7-9.3,8.9-9.3c2.8,0,4.4,1.6,4.6,2V174H277.1z"/>
	<path class="st1" d="M293.8,183c0-2.9-1.8-4.5-4.1-4.5c-2.4,0-4.4,1.6-4.4,4.5c0,3,2,4.6,4.4,4.6C292,187.6,293.8,186,293.8,183
		 M299,174v18h-5.5v-1.8c-0.2,0.6-1.9,2.1-4.6,2.1c-4.1,0-8.9-2.9-8.9-9.4c0-6.2,4.7-9.3,8.9-9.3c2.8,0,4.4,1.6,4.6,2V174H299z"/>
</g>
<rect x="302.6" y="167.6" class="st1" width="5.5" height="24.4"/>
</svg>
