<?xml version="1.0" encoding="utf-8"?>
<!-- Generator: Adobe Illustrator 24.1.0, SVG Export Plug-In . SVG Version: 6.00 Build 0)  -->
<svg version="1.1" id="Layer_1" xmlns="http://www.w3.org/2000/svg" xmlns:xlink="http://www.w3.org/1999/xlink" x="0px" y="0px"
	 viewBox="0 0 300 99.32" style="enable-background:new 0 0 300 99.32;" xml:space="preserve">
<style type="text/css">
	.st0{fill:url(#SVGID_1_);}
	.st1{fill:url(#SVGID_2_);}
	.st2{fill:url(#SVGID_3_);}
	.st3{fill:url(#SVGID_4_);}
	.st4{fill:url(#SVGID_5_);}
	.st5{fill:url(#SVGID_6_);}
	.st6{fill:url(#SVGID_7_);}
	.st7{fill:url(#SVGID_8_);}
	.st8{fill:url(#SVGID_9_);}
	.st9{fill:url(#SVGID_10_);}
	.st10{fill:#163959;}
	.st11{fill:#8DC63F;}
</style>
<g>
	<g>
		<g>
			<linearGradient id="SVGID_1_" gradientUnits="userSpaceOnUse" x1="-0.4704" y1="57.4652" x2="68.7099" y2="3.9257">
				<stop  offset="0" style="stop-color:#163959"/>
				<stop  offset="0.3913" style="stop-color:#009BDF"/>
				<stop  offset="0.4196" style="stop-color:#00A1E2"/>
				<stop  offset="0.4763" style="stop-color:#00AEE8"/>
				<stop  offset="0.5342" style="stop-color:#0EB9ED"/>
				<stop  offset="0.5931" style="stop-color:#44C2F1"/>
				<stop  offset="0.6535" style="stop-color:#56C9F4"/>
				<stop  offset="0.7179" style="stop-color:#5BCBF5"/>
				<stop  offset="0.7573" style="stop-color:#6ACAD3"/>
				<stop  offset="0.8245" style="stop-color:#7AC8A2"/>
				<stop  offset="0.8848" style="stop-color:#83C77A"/>
				<stop  offset="0.936" style="stop-color:#89C658"/>
				<stop  offset="0.976" style="stop-color:#8CC645"/>
				<stop  offset="1" style="stop-color:#8DC63F"/>
			</linearGradient>
			<path class="st0" d="M43.89,26.34c2.6,1.08,5.59-0.16,6.66-2.76c1.08-2.6-0.16-5.59-2.76-6.66c-2.6-1.08-5.59,0.16-6.66,2.76
				C40.05,22.28,41.28,25.26,43.89,26.34z"/>
			<linearGradient id="SVGID_2_" gradientUnits="userSpaceOnUse" x1="2.227" y1="60.9505" x2="71.4072" y2="7.411">
				<stop  offset="0" style="stop-color:#163959"/>
				<stop  offset="0.3913" style="stop-color:#009BDF"/>
				<stop  offset="0.4196" style="stop-color:#00A1E2"/>
				<stop  offset="0.4763" style="stop-color:#00AEE8"/>
				<stop  offset="0.5342" style="stop-color:#0EB9ED"/>
				<stop  offset="0.5931" style="stop-color:#44C2F1"/>
				<stop  offset="0.6535" style="stop-color:#56C9F4"/>
				<stop  offset="0.7179" style="stop-color:#5BCBF5"/>
				<stop  offset="0.7573" style="stop-color:#6ACAD3"/>
				<stop  offset="0.8245" style="stop-color:#7AC8A2"/>
				<stop  offset="0.8848" style="stop-color:#83C77A"/>
				<stop  offset="0.936" style="stop-color:#89C658"/>
				<stop  offset="0.976" style="stop-color:#8CC645"/>
				<stop  offset="1" style="stop-color:#8DC63F"/>
			</linearGradient>
			<path class="st1" d="M39.97,36.4c3.02,1.25,6.21,1.88,9.39,1.88c2.4,0,4.79-0.39,7.12-1.1c-0.55-2.08-0.8-4.2-0.8-6.31
				c-4.34,1.6-9.04,1.53-13.32-0.24c-4.44-1.84-7.91-5.28-9.81-9.69c-0.56,0.17-1.28,0.44-2.36,0.91c-1.28,0.56-2.44,1.21-3.28,1.79
				C29.48,29.44,34.1,33.97,39.97,36.4z"/>
			<linearGradient id="SVGID_3_" gradientUnits="userSpaceOnUse" x1="15.2778" y1="77.814" x2="84.4581" y2="24.2745">
				<stop  offset="0" style="stop-color:#163959"/>
				<stop  offset="0.3913" style="stop-color:#009BDF"/>
				<stop  offset="0.4196" style="stop-color:#00A1E2"/>
				<stop  offset="0.4763" style="stop-color:#00AEE8"/>
				<stop  offset="0.5342" style="stop-color:#0EB9ED"/>
				<stop  offset="0.5931" style="stop-color:#44C2F1"/>
				<stop  offset="0.6535" style="stop-color:#56C9F4"/>
				<stop  offset="0.7179" style="stop-color:#5BCBF5"/>
				<stop  offset="0.7573" style="stop-color:#6ACAD3"/>
				<stop  offset="0.8245" style="stop-color:#7AC8A2"/>
				<stop  offset="0.8848" style="stop-color:#83C77A"/>
				<stop  offset="0.936" style="stop-color:#89C658"/>
				<stop  offset="0.976" style="stop-color:#8CC645"/>
				<stop  offset="1" style="stop-color:#8DC63F"/>
			</linearGradient>
			<path class="st2" d="M77.68,35.66c2.65-0.96,4.01-3.89,3.05-6.54c-0.96-2.65-3.89-4.01-6.54-3.05c-2.65,0.96-4.01,3.89-3.05,6.54
				C72.11,35.26,75.04,36.62,77.68,35.66z"/>
			<linearGradient id="SVGID_4_" gradientUnits="userSpaceOnUse" x1="12.7947" y1="74.6055" x2="81.975" y2="21.066">
				<stop  offset="0" style="stop-color:#163959"/>
				<stop  offset="0.3913" style="stop-color:#009BDF"/>
				<stop  offset="0.4196" style="stop-color:#00A1E2"/>
				<stop  offset="0.4763" style="stop-color:#00AEE8"/>
				<stop  offset="0.5342" style="stop-color:#0EB9ED"/>
				<stop  offset="0.5931" style="stop-color:#44C2F1"/>
				<stop  offset="0.6535" style="stop-color:#56C9F4"/>
				<stop  offset="0.7179" style="stop-color:#5BCBF5"/>
				<stop  offset="0.7573" style="stop-color:#6ACAD3"/>
				<stop  offset="0.8245" style="stop-color:#7AC8A2"/>
				<stop  offset="0.8848" style="stop-color:#83C77A"/>
				<stop  offset="0.936" style="stop-color:#89C658"/>
				<stop  offset="0.976" style="stop-color:#8CC645"/>
				<stop  offset="1" style="stop-color:#8DC63F"/>
			</linearGradient>
			<path class="st3" d="M66.04,44.71c0.15,0.17,0.32,0.32,0.48,0.48c3.04-0.88,6.17-1.15,9.26-0.83c-4.11-2.12-7.24-5.64-8.82-9.98
				c-1.64-4.51-1.45-9.4,0.52-13.78c-0.5-0.3-1.19-0.64-2.27-1.12c-1.28-0.57-2.54-0.98-3.53-1.21c-2.55,5.82-2.78,12.28-0.6,18.25
				C62.2,39.6,63.89,42.37,66.04,44.71z"/>
			<linearGradient id="SVGID_5_" gradientUnits="userSpaceOnUse" x1="29.4524" y1="96.1295" x2="98.6327" y2="42.5899">
				<stop  offset="0" style="stop-color:#163959"/>
				<stop  offset="0.3913" style="stop-color:#009BDF"/>
				<stop  offset="0.4196" style="stop-color:#00A1E2"/>
				<stop  offset="0.4763" style="stop-color:#00AEE8"/>
				<stop  offset="0.5342" style="stop-color:#0EB9ED"/>
				<stop  offset="0.5931" style="stop-color:#44C2F1"/>
				<stop  offset="0.6535" style="stop-color:#56C9F4"/>
				<stop  offset="0.7179" style="stop-color:#5BCBF5"/>
				<stop  offset="0.7573" style="stop-color:#6ACAD3"/>
				<stop  offset="0.8245" style="stop-color:#7AC8A2"/>
				<stop  offset="0.8848" style="stop-color:#83C77A"/>
				<stop  offset="0.936" style="stop-color:#89C658"/>
				<stop  offset="0.976" style="stop-color:#8CC645"/>
				<stop  offset="1" style="stop-color:#8DC63F"/>
			</linearGradient>
			<path class="st4" d="M68.97,59.4c-2.65,0.96-4.01,3.89-3.05,6.54c0.96,2.65,3.89,4.01,6.54,3.05c2.65-0.96,4.01-3.89,3.05-6.54
				C74.55,59.8,71.62,58.44,68.97,59.4z"/>
			<linearGradient id="SVGID_6_" gradientUnits="userSpaceOnUse" x1="24.3123" y1="89.4878" x2="93.4926" y2="35.9482">
				<stop  offset="0" style="stop-color:#163959"/>
				<stop  offset="0.3913" style="stop-color:#009BDF"/>
				<stop  offset="0.4196" style="stop-color:#00A1E2"/>
				<stop  offset="0.4763" style="stop-color:#00AEE8"/>
				<stop  offset="0.5342" style="stop-color:#0EB9ED"/>
				<stop  offset="0.5931" style="stop-color:#44C2F1"/>
				<stop  offset="0.6535" style="stop-color:#56C9F4"/>
				<stop  offset="0.7179" style="stop-color:#5BCBF5"/>
				<stop  offset="0.7573" style="stop-color:#6ACAD3"/>
				<stop  offset="0.8245" style="stop-color:#7AC8A2"/>
				<stop  offset="0.8848" style="stop-color:#83C77A"/>
				<stop  offset="0.936" style="stop-color:#89C658"/>
				<stop  offset="0.976" style="stop-color:#8CC645"/>
				<stop  offset="1" style="stop-color:#8DC63F"/>
			</linearGradient>
			<path class="st5" d="M65.06,49.33c-3.08,1.12-5.84,2.81-8.19,4.96c-1.58,1.44-2.94,3.12-4.09,4.95c0.57,0.52,1.13,1.06,1.65,1.64
				c0.99,1.08,1.86,2.24,2.63,3.45c2.1-4.26,5.69-7.49,10.15-9.12c4.51-1.64,9.4-1.45,13.78,0.52c0.3-0.5,0.64-1.19,1.12-2.27
				c0.57-1.28,0.98-2.54,1.21-3.53C77.5,47.38,71.04,47.16,65.06,49.33z"/>
			<linearGradient id="SVGID_7_" gradientUnits="userSpaceOnUse" x1="22.2673" y1="86.8454" x2="91.4476" y2="33.3059">
				<stop  offset="0" style="stop-color:#163959"/>
				<stop  offset="0.3913" style="stop-color:#009BDF"/>
				<stop  offset="0.4196" style="stop-color:#00A1E2"/>
				<stop  offset="0.4763" style="stop-color:#00AEE8"/>
				<stop  offset="0.5342" style="stop-color:#0EB9ED"/>
				<stop  offset="0.5931" style="stop-color:#44C2F1"/>
				<stop  offset="0.6535" style="stop-color:#56C9F4"/>
				<stop  offset="0.7179" style="stop-color:#5BCBF5"/>
				<stop  offset="0.7573" style="stop-color:#6ACAD3"/>
				<stop  offset="0.8245" style="stop-color:#7AC8A2"/>
				<stop  offset="0.8848" style="stop-color:#83C77A"/>
				<stop  offset="0.936" style="stop-color:#89C658"/>
				<stop  offset="0.976" style="stop-color:#8CC645"/>
				<stop  offset="1" style="stop-color:#8DC63F"/>
			</linearGradient>
			<path class="st6" d="M35.3,70.34c-2.08,1.9-2.22,5.13-0.31,7.21c1.9,2.08,5.13,2.22,7.21,0.31s2.22-5.13,0.31-7.21
				C40.6,68.57,37.37,68.43,35.3,70.34z"/>
			<linearGradient id="SVGID_8_" gradientUnits="userSpaceOnUse" x1="22.6743" y1="87.3713" x2="91.8546" y2="33.8318">
				<stop  offset="0" style="stop-color:#163959"/>
				<stop  offset="0.3913" style="stop-color:#009BDF"/>
				<stop  offset="0.4196" style="stop-color:#00A1E2"/>
				<stop  offset="0.4763" style="stop-color:#00AEE8"/>
				<stop  offset="0.5342" style="stop-color:#0EB9ED"/>
				<stop  offset="0.5931" style="stop-color:#44C2F1"/>
				<stop  offset="0.6535" style="stop-color:#56C9F4"/>
				<stop  offset="0.7179" style="stop-color:#5BCBF5"/>
				<stop  offset="0.7573" style="stop-color:#6ACAD3"/>
				<stop  offset="0.8245" style="stop-color:#7AC8A2"/>
				<stop  offset="0.8848" style="stop-color:#83C77A"/>
				<stop  offset="0.936" style="stop-color:#89C658"/>
				<stop  offset="0.976" style="stop-color:#8CC645"/>
				<stop  offset="1" style="stop-color:#8DC63F"/>
			</linearGradient>
			<path class="st7" d="M42.59,57.51c-1.37-0.64-2.82-1.13-4.3-1.5c-1.33,2.09-2.95,3.94-4.82,5.52c4.71,0.33,9.04,2.4,12.22,5.88
				c3.24,3.54,4.94,8.13,4.79,12.93c0.58,0.08,1.34,0.14,2.52,0.17c1.4,0.04,2.72-0.07,3.73-0.24c0.13-6.35-2.13-12.41-6.43-17.09
				C48.1,60.77,45.48,58.86,42.59,57.51z"/>
			<linearGradient id="SVGID_9_" gradientUnits="userSpaceOnUse" x1="1.5131" y1="60.0281" x2="70.6934" y2="6.4886">
				<stop  offset="0" style="stop-color:#163959"/>
				<stop  offset="0.3913" style="stop-color:#009BDF"/>
				<stop  offset="0.4196" style="stop-color:#00A1E2"/>
				<stop  offset="0.4763" style="stop-color:#00AEE8"/>
				<stop  offset="0.5342" style="stop-color:#0EB9ED"/>
				<stop  offset="0.5931" style="stop-color:#44C2F1"/>
				<stop  offset="0.6535" style="stop-color:#56C9F4"/>
				<stop  offset="0.7179" style="stop-color:#5BCBF5"/>
				<stop  offset="0.7573" style="stop-color:#6ACAD3"/>
				<stop  offset="0.8245" style="stop-color:#7AC8A2"/>
				<stop  offset="0.8848" style="stop-color:#83C77A"/>
				<stop  offset="0.936" style="stop-color:#89C658"/>
				<stop  offset="0.976" style="stop-color:#8CC645"/>
				<stop  offset="1" style="stop-color:#8DC63F"/>
			</linearGradient>
			<path class="st8" d="M25.55,47.16c1.19-2.55,0.09-5.59-2.47-6.78c-2.55-1.19-5.59-0.09-6.78,2.47c-1.19,2.55-0.09,5.59,2.47,6.78
				C21.32,50.82,24.36,49.71,25.55,47.16z"/>
			<linearGradient id="SVGID_10_" gradientUnits="userSpaceOnUse" x1="6.1133" y1="65.9722" x2="75.2936" y2="12.4327">
				<stop  offset="0" style="stop-color:#163959"/>
				<stop  offset="0.3913" style="stop-color:#009BDF"/>
				<stop  offset="0.4196" style="stop-color:#00A1E2"/>
				<stop  offset="0.4763" style="stop-color:#00AEE8"/>
				<stop  offset="0.5342" style="stop-color:#0EB9ED"/>
				<stop  offset="0.5931" style="stop-color:#44C2F1"/>
				<stop  offset="0.6535" style="stop-color:#56C9F4"/>
				<stop  offset="0.7179" style="stop-color:#5BCBF5"/>
				<stop  offset="0.7573" style="stop-color:#6ACAD3"/>
				<stop  offset="0.8245" style="stop-color:#7AC8A2"/>
				<stop  offset="0.8848" style="stop-color:#83C77A"/>
				<stop  offset="0.936" style="stop-color:#89C658"/>
				<stop  offset="0.976" style="stop-color:#8CC645"/>
				<stop  offset="1" style="stop-color:#8DC63F"/>
			</linearGradient>
			<path class="st9" d="M37.72,42.22c0.04-0.86,0.01-1.71-0.05-2.57c-0.2-0.08-0.4-0.13-0.59-0.21c-2.42-1-4.61-2.38-6.55-4.04
				c1.47,4.46,1.21,9.22-0.77,13.47c-2.03,4.35-5.62,7.67-10.11,9.38c0.15,0.56,0.39,1.29,0.81,2.4c0.5,1.31,1.11,2.49,1.65,3.35
				c5.92-2.31,10.64-6.72,13.33-12.48C36.82,48.55,37.58,45.4,37.72,42.22z"/>
		</g>
		<g>
			<g>
				<path class="st10" d="M117.14,82.22h-5.54V80.9h1.97l-1.49-3.53h-6.92l-1.54,3.53h1.83v1.32h-5.32V80.9h1.89l5.43-12.44h-2
					v-1.32h3.94l5.87,13.76h1.89V82.22z M111.61,76.12l-2.98-7.26l-3.18,7.26H111.61z"/>
				<path class="st10" d="M127.36,71.14v3.26h-1.23c-0.45-0.69-1.02-1.23-1.7-1.61c-0.68-0.38-1.39-0.57-2.14-0.57
					c-1.22,0-2.26,0.44-3.13,1.31c-0.86,0.87-1.3,1.93-1.3,3.17c0,1.24,0.43,2.29,1.29,3.15c0.86,0.87,1.89,1.3,3.1,1.3
					c0.81,0,1.55-0.2,2.24-0.61c0.69-0.41,1.23-1.02,1.63-1.83h1.61c-0.44,1.16-1.16,2.08-2.16,2.77c-0.99,0.68-2.09,1.03-3.29,1.03
					c-1,0-1.96-0.26-2.89-0.77c-0.93-0.51-1.66-1.23-2.17-2.16c-0.52-0.93-0.78-1.89-0.78-2.9c0-0.99,0.26-1.95,0.77-2.88
					c0.51-0.93,1.23-1.65,2.13-2.16c0.91-0.51,1.86-0.77,2.85-0.77c1.47,0,2.78,0.59,3.92,1.78v-1.51H127.36z"/>
				<path class="st10" d="M139.32,71.14v3.26h-1.23c-0.45-0.69-1.02-1.23-1.7-1.61c-0.68-0.38-1.39-0.57-2.14-0.57
					c-1.22,0-2.26,0.44-3.13,1.31c-0.86,0.87-1.3,1.93-1.3,3.17c0,1.24,0.43,2.29,1.29,3.15c0.86,0.87,1.89,1.3,3.1,1.3
					c0.81,0,1.55-0.2,2.24-0.61c0.69-0.41,1.23-1.02,1.63-1.83h1.61c-0.44,1.16-1.16,2.08-2.16,2.77c-0.99,0.68-2.09,1.03-3.29,1.03
					c-1,0-1.96-0.26-2.89-0.77c-0.93-0.51-1.66-1.23-2.17-2.16c-0.52-0.93-0.78-1.89-0.78-2.9c0-0.99,0.26-1.95,0.77-2.88
					c0.51-0.93,1.23-1.65,2.13-2.16c0.91-0.51,1.86-0.77,2.85-0.77c1.47,0,2.78,0.59,3.92,1.78v-1.51H139.32z"/>
				<path class="st10" d="M150.45,79.07h1.46c-0.54,1.12-1.29,1.97-2.25,2.56c-0.96,0.59-1.98,0.88-3.08,0.88
					c-1.01,0-1.98-0.26-2.92-0.77c-0.94-0.51-1.67-1.23-2.19-2.13s-0.78-1.88-0.78-2.9c0-1.6,0.57-2.98,1.71-4.12
					c1.14-1.14,2.51-1.71,4.1-1.71c1.03,0,2.02,0.26,2.97,0.79c0.95,0.52,1.67,1.25,2.16,2.17c0.49,0.92,0.74,1.86,0.74,2.83
					c0,0.1,0,0.26-0.01,0.48h-10.28c0.14,1.23,0.63,2.22,1.47,2.97c0.84,0.75,1.84,1.13,2.99,1.13c0.84,0,1.58-0.18,2.22-0.54
					C149.43,80.32,149.99,79.79,150.45,79.07z M151.08,76.01c-0.19-1.14-0.72-2.07-1.57-2.79c-0.85-0.72-1.85-1.08-2.99-1.08
					c-1.09,0-2.05,0.36-2.9,1.09c-0.85,0.72-1.36,1.65-1.54,2.78H151.08z"/>
				<path class="st10" d="M160.75,71.14v2.78h-1.39c-0.07-0.63-0.28-1.11-0.64-1.44c-0.36-0.33-0.84-0.49-1.43-0.49
					c-0.65,0-1.18,0.19-1.59,0.56c-0.41,0.37-0.61,0.82-0.61,1.34c0,0.47,0.17,0.86,0.5,1.19c0.32,0.33,0.99,0.6,2,0.8
					s1.76,0.43,2.26,0.69c0.5,0.26,0.89,0.61,1.17,1.06c0.28,0.45,0.42,0.97,0.42,1.54c0,0.91-0.35,1.69-1.05,2.35
					c-0.7,0.66-1.6,0.99-2.7,0.99c-1.29,0-2.29-0.54-2.98-1.62v1.33h-1.13v-3.26h1.39c0.12,0.81,0.4,1.41,0.85,1.81
					c0.45,0.4,1.01,0.6,1.69,0.6c0.72,0,1.31-0.21,1.77-0.63c0.46-0.42,0.69-0.92,0.69-1.51c0-0.57-0.2-1.02-0.61-1.35
					c-0.3-0.24-0.96-0.47-1.96-0.69c-1-0.22-1.74-0.46-2.22-0.7c-0.48-0.25-0.86-0.59-1.14-1.03c-0.28-0.44-0.42-0.93-0.42-1.48
					c0-0.86,0.32-1.6,0.96-2.21c0.64-0.61,1.47-0.91,2.5-0.91c0.61,0,1.14,0.11,1.59,0.34c0.33,0.17,0.65,0.46,0.95,0.86v-0.93
					H160.75z"/>
				<path class="st10" d="M170.13,71.14v2.78h-1.39c-0.07-0.63-0.28-1.11-0.64-1.44c-0.36-0.33-0.84-0.49-1.43-0.49
					c-0.65,0-1.18,0.19-1.59,0.56c-0.41,0.37-0.61,0.82-0.61,1.34c0,0.47,0.17,0.86,0.5,1.19c0.32,0.33,0.99,0.6,2,0.8
					c1.01,0.2,1.76,0.43,2.26,0.69s0.89,0.61,1.17,1.06c0.28,0.45,0.42,0.97,0.42,1.54c0,0.91-0.35,1.69-1.05,2.35
					c-0.7,0.66-1.6,0.99-2.7,0.99c-1.29,0-2.29-0.54-2.98-1.62v1.33h-1.13v-3.26h1.39c0.12,0.81,0.4,1.41,0.85,1.81
					c0.45,0.4,1.01,0.6,1.69,0.6c0.72,0,1.31-0.21,1.77-0.63c0.46-0.42,0.69-0.92,0.69-1.51c0-0.57-0.2-1.02-0.61-1.35
					c-0.3-0.24-0.96-0.47-1.96-0.69c-1-0.22-1.74-0.46-2.22-0.7c-0.48-0.25-0.86-0.59-1.14-1.03c-0.28-0.44-0.42-0.93-0.42-1.48
					c0-0.86,0.32-1.6,0.96-2.21c0.64-0.61,1.47-0.91,2.5-0.91c0.61,0,1.14,0.11,1.59,0.34c0.33,0.17,0.65,0.46,0.95,0.86v-0.93
					H170.13z"/>
				<path class="st11" d="M180.8,84.79V65.6h1.16v19.19H180.8z"/>
				<path class="st10" d="M190.42,78.81h1.6c0.12,0.73,0.4,1.3,0.86,1.7c0.45,0.4,1,0.6,1.65,0.6c0.48,0,0.93-0.13,1.34-0.39
					c0.41-0.26,0.71-0.59,0.91-1c0.2-0.4,0.29-1,0.29-1.8v-9.47h-1.93v-1.32h5.37v1.32h-1.93v9.78c0,0.91-0.16,1.68-0.48,2.33
					c-0.32,0.64-0.81,1.15-1.48,1.51c-0.67,0.37-1.37,0.55-2.11,0.55c-1.01,0-1.91-0.31-2.71-0.93
					C190.98,81.07,190.53,80.11,190.42,78.81z"/>
				<path class="st10" d="M211.61,71.14v9.77h1.85v1.31h-3.22v-1.83c-0.46,0.7-1,1.23-1.62,1.59c-0.62,0.35-1.32,0.53-2.11,0.53
					c-1.2,0-2.21-0.42-3.04-1.26c-0.83-0.84-1.24-1.95-1.24-3.34v-5.46h-1.85v-1.31h3.24v6.26c0,1.18,0.31,2.1,0.94,2.76
					c0.63,0.66,1.41,0.99,2.34,0.99c0.59,0,1.17-0.16,1.72-0.49c0.56-0.33,0.98-0.8,1.28-1.41c0.22-0.46,0.33-1.06,0.33-1.8v-5
					h-1.88v-1.31H211.61z"/>
				<path class="st10" d="M221.76,71.14v2.78h-1.39c-0.07-0.63-0.28-1.11-0.64-1.44s-0.84-0.49-1.43-0.49
					c-0.65,0-1.18,0.19-1.59,0.56c-0.41,0.37-0.61,0.82-0.61,1.34c0,0.47,0.17,0.86,0.5,1.19c0.32,0.33,0.99,0.6,2,0.8
					c1.01,0.2,1.76,0.43,2.26,0.69s0.89,0.61,1.17,1.06c0.28,0.45,0.42,0.97,0.42,1.54c0,0.91-0.35,1.69-1.05,2.35
					c-0.7,0.66-1.6,0.99-2.7,0.99c-1.29,0-2.29-0.54-2.98-1.62v1.33h-1.13v-3.26h1.39c0.12,0.81,0.4,1.41,0.85,1.81
					c0.45,0.4,1.01,0.6,1.69,0.6c0.72,0,1.31-0.21,1.77-0.63c0.46-0.42,0.69-0.92,0.69-1.51c0-0.57-0.2-1.02-0.61-1.35
					c-0.3-0.24-0.96-0.47-1.96-0.69c-1-0.22-1.74-0.46-2.22-0.7c-0.48-0.25-0.86-0.59-1.14-1.03c-0.28-0.44-0.42-0.93-0.42-1.48
					c0-0.86,0.32-1.6,0.96-2.21c0.64-0.61,1.47-0.91,2.5-0.91c0.61,0,1.14,0.11,1.59,0.34c0.33,0.17,0.65,0.46,0.95,0.86v-0.93
					H221.76z"/>
				<path class="st10" d="M226.62,72.45v8.46h2.63v1.31h-4.01v-9.77h-2.15v-1.31h2.15v-4h1.39v4h2.46v1.31H226.62z"/>
				<path class="st10" d="M234.2,71.14v9.77h1.85v1.31h-5.09v-1.31h1.85v-8.46h-1.85v-1.31H234.2z M234.16,67.14v2.18h-1.39v-2.18
					H234.16z"/>
				<path class="st10" d="M247.33,71.14v3.26h-1.23c-0.45-0.69-1.02-1.23-1.7-1.61c-0.68-0.38-1.39-0.57-2.14-0.57
					c-1.22,0-2.26,0.44-3.13,1.31c-0.86,0.87-1.3,1.93-1.3,3.17c0,1.24,0.43,2.29,1.29,3.15c0.86,0.87,1.89,1.3,3.1,1.3
					c0.81,0,1.55-0.2,2.24-0.61c0.69-0.41,1.23-1.02,1.63-1.83h1.61c-0.44,1.16-1.16,2.08-2.16,2.77c-0.99,0.68-2.09,1.03-3.29,1.03
					c-1,0-1.96-0.26-2.89-0.77c-0.93-0.51-1.66-1.23-2.17-2.16c-0.52-0.93-0.78-1.89-0.78-2.9c0-0.99,0.26-1.95,0.77-2.88
					c0.51-0.93,1.23-1.65,2.13-2.16c0.91-0.51,1.86-0.77,2.85-0.77c1.47,0,2.78,0.59,3.92,1.78v-1.51H247.33z"/>
				<path class="st10" d="M258.46,79.07h1.46c-0.54,1.12-1.29,1.97-2.25,2.56c-0.96,0.59-1.98,0.88-3.08,0.88
					c-1,0-1.98-0.26-2.92-0.77c-0.94-0.51-1.67-1.23-2.19-2.13s-0.78-1.88-0.78-2.9c0-1.6,0.57-2.98,1.71-4.12
					c1.14-1.14,2.51-1.71,4.1-1.71c1.03,0,2.02,0.26,2.97,0.79c0.95,0.52,1.67,1.25,2.16,2.17c0.49,0.92,0.74,1.86,0.74,2.83
					c0,0.1,0,0.26-0.01,0.48H250.1c0.14,1.23,0.63,2.22,1.47,2.97c0.84,0.75,1.84,1.13,2.99,1.13c0.84,0,1.58-0.18,2.22-0.54
					C257.44,80.32,258,79.79,258.46,79.07z M259.09,76.01c-0.19-1.14-0.71-2.07-1.57-2.79c-0.85-0.72-1.85-1.08-2.99-1.08
					c-1.09,0-2.05,0.36-2.9,1.09c-0.85,0.72-1.36,1.65-1.54,2.78H259.09z"/>
			</g>
			<g>
				<g>
					<path class="st10" d="M115.28,44.52h5.39v8.56h-20.59v-4.5h3.09V29.2h-3.09v-4.5h11.57v4.5h-3.09v19.06h6.72V44.52z"/>
					<path class="st10" d="M144.76,36.39v12.17h2.76v4.52h-7.63v-2.84c-0.83,1.06-1.81,1.87-2.96,2.41
						c-1.14,0.54-2.44,0.81-3.89,0.81c-2.9,0-5.41-1.07-7.51-3.2c-2.1-2.14-3.15-4.69-3.15-7.66c0-1.91,0.49-3.75,1.46-5.52
						c0.97-1.77,2.31-3.14,4.01-4.12c1.7-0.97,3.48-1.46,5.33-1.46c1.41,0,2.67,0.28,3.78,0.84c1.11,0.56,2.08,1.4,2.91,2.52v-2.99
						h7.63v4.52H144.76z M139.95,42.43c0-1.7-0.61-3.15-1.84-4.35c-1.22-1.2-2.72-1.8-4.49-1.8c-1.77,0-3.27,0.61-4.51,1.83
						c-1.24,1.22-1.86,2.69-1.86,4.41c0,1.69,0.61,3.14,1.84,4.35c1.22,1.22,2.71,1.82,4.47,1.82c1.77,0,3.28-0.61,4.52-1.85
						C139.33,45.62,139.95,44.14,139.95,42.43z"/>
					<path class="st10" d="M181.46,36.39l-5.87,16.69h-4.74L166.9,40.6l-4.63,12.48h-4.6l-5.18-16.69h-2.67v-4.52h9.93v4.52h-2.38
						l3.16,9.95l4.5-13.68h4.02l4.22,13.68l3.34-9.95h-2.44v-4.52h10.14v4.52H181.46z"/>
					<path class="st10" d="M209.42,48.59v4.5h-6.66l-8.6-12.75v8.25h2.18v4.5h-10.7v-4.5h3.13V29.2h-3.13v-4.5h12.81
						c3.18,0,5.69,0.9,7.52,2.7c1.83,1.8,2.75,4.11,2.75,6.93c0,2.31-0.66,4.26-1.97,5.85c-1.31,1.59-2.98,2.52-5,2.78l4.47,5.62
						H209.42z M194.16,39.84h3.09c2.1,0,3.63-0.51,4.58-1.54c0.95-1.03,1.43-2.28,1.43-3.75c0-1.5-0.46-2.71-1.38-3.63
						c-0.92-0.92-2.21-1.38-3.87-1.38h-3.86V39.84z"/>
					<path class="st10" d="M219.16,31.87v16.69h2.76v4.52h-10.35v-4.52h2.76V36.39h-2.76v-4.52H219.16z M219.16,24.7v5.14h-4.83
						V24.7H219.16z"/>
					<path class="st10" d="M225.4,54.95h5.66c0.44,0.84,1.1,1.5,1.96,1.96c0.86,0.46,1.81,0.69,2.85,0.69
						c1.08,0,2.11-0.26,3.09-0.78c0.98-0.52,1.74-1.26,2.27-2.23c0.53-0.97,0.8-2,0.8-3.11v-1.58c-0.9,1.19-1.74,2-2.53,2.45
						c-1.31,0.73-2.77,1.1-4.38,1.1c-1.81,0-3.6-0.48-5.36-1.45c-1.76-0.97-3.13-2.32-4.11-4.06s-1.46-3.55-1.46-5.43
						c0-1.88,0.49-3.69,1.48-5.43c0.99-1.74,2.36-3.11,4.13-4.1c1.76-0.99,3.59-1.48,5.48-1.48c1.67,0,3.18,0.37,4.52,1.12
						c0.84,0.46,1.69,1.24,2.53,2.36v-3.11h7.22v4.52h-2.76v14.39c0,2.41-0.4,4.34-1.2,5.81c-0.8,1.46-2.08,2.69-3.85,3.67
						c-1.76,0.98-3.78,1.47-6.05,1.47c-1.92,0-3.64-0.33-5.16-1c-1.52-0.66-2.78-1.63-3.77-2.9
						C226.18,57.07,225.72,56.11,225.4,54.95z M241.64,42.45c0-1.76-0.65-3.26-1.94-4.52c-1.29-1.26-2.87-1.89-4.72-1.89
						c-1.85,0-3.42,0.63-4.72,1.9c-1.29,1.26-1.94,2.78-1.94,4.53c0,1.74,0.65,3.25,1.95,4.53c1.3,1.28,2.87,1.92,4.71,1.92
						c1.85,0,3.42-0.64,4.72-1.91C241,45.74,241.64,44.22,241.64,42.45z"/>
					<path class="st10" d="M257.57,24.7v10.35c0.75-1.19,1.64-2.08,2.68-2.66c1.04-0.59,2.24-0.88,3.59-0.88
						c2.18,0,4.02,0.81,5.51,2.43c1.49,1.62,2.24,3.89,2.24,6.82v7.82h2.76v4.52H264v-4.52h2.76v-6.51c0-1.41-0.11-2.42-0.33-3.03
						c-0.32-0.86-0.84-1.53-1.57-2.02c-0.73-0.49-1.6-0.74-2.61-0.74c-1.6,0-2.86,0.6-3.77,1.8c-0.61,0.8-0.91,1.99-0.91,3.57v6.93
						h2.76v4.52h-10.35v-4.52h2.76V29.22h-2.76V24.7H257.57z"/>
					<path class="st10" d="M282.11,36.39v12.17h3.71v4.52h-8.54V36.39h-3.44v-4.52h3.44V24.7h4.83v7.17h3.71v4.52H282.11z"/>
				</g>
			</g>
		</g>
	</g>
</g>
</svg>
